<?xml version="1.0" encoding="UTF-8"?>
<svg id="Layer_1" data-name="Layer 1" xmlns="http://www.w3.org/2000/svg" width="75.08" height="75.08" viewBox="0 0 75.08 75.08">
  <defs>
    <style>
      .cls-1 {
        fill: none;
        stroke: #231f20;
        stroke-miterlimit: 10;
        stroke-width: 3px;
      }
    </style>
  </defs>
  <g>
    <path class="cls-1" d="M73.58,37.54c0,19.9-16.14,36.04-36.04,36.04S1.5,57.44,1.5,37.54,17.08,2.06,36.51,1.51c.34,0,.68-.01,1.03-.01,19.9,0,36.04,16.14,36.04,36.04Z"/>
    <line class="cls-1" x1="37.54" y1="73.58" x2="37.54" y2="1.5"/>
    <line class="cls-1" x1="1.5" y1="37.54" x2="73.58" y2="36.78"/>
  </g>
  <path class="cls-1" d="M37.54,2.05s-49.36,36.51-1.18,71.51"/>
  <path class="cls-1" d="M38.52,73.56s48.23-37.98-.98-71.51"/>
  <path class="cls-1" d="M9.71,14.64s27.62,15,55.03-.73"/>
  <path class="cls-1" d="M64.74,60.11s-27.66-14.92-55.03,.89"/>
</svg>